<?xml version="1.0" encoding="UTF-8" standalone="no"?>
<!DOCTYPE svg PUBLIC "-//W3C//DTD SVG 1.1//EN" "http://www.w3.org/Graphics/SVG/1.1/DTD/svg11.dtd">
<svg width="100%" height="100%" viewBox="0 0 84 232" version="1.1" xmlns="http://www.w3.org/2000/svg" xmlns:xlink="http://www.w3.org/1999/xlink" xml:space="preserve" xmlns:serif="http://www.serif.com/" style="fill-rule:evenodd;clip-rule:evenodd;stroke-linejoin:round;stroke-miterlimit:2;">
    <g transform="matrix(1,0,0,1,-181,-127)">
        <path d="M181.5,239C181.5,239 176.555,299.063 229,359C229,359 227,320 260,311C290.133,302.782 181.5,239 181.5,239Z" style="fill:white;"/>
    </g>
    <g id="Artboard1" transform="matrix(1,0,0,1,-181.5,-127)">
        <rect x="181.5" y="127" width="83.782" height="232" style="fill:none;"/>
        <clipPath id="_clip1">
            <rect x="181.5" y="127" width="83.782" height="232"/>
        </clipPath>
        <g clip-path="url(#_clip1)">
            <g transform="matrix(1,0,0,1,-39,-28)">
                <path d="M658,227.353C658,187.42 625.58,155 585.647,155L293.353,155C253.42,155 221,187.42 221,227.353L221,266.647C221,306.58 253.42,339 293.353,339L585.647,339C625.58,339 658,306.58 658,266.647L658,227.353Z" style="fill:white;"/>
            </g>
            <g transform="matrix(1,0,0,1,0.5,0)">
                <path d="M181.5,239C181.5,239 176.555,299.063 229,359C229,359 227,320 260,311C290.133,302.782 181.5,239 181.5,239Z" style="fill:white;"/>
            </g>
        </g>
    </g>
</svg>
